<mxfile host="Electron" modified="2024-05-16T14:50:08.232Z" agent="Mozilla/5.0 (Windows NT 10.0; Win64; x64) AppleWebKit/537.36 (KHTML, like Gecko) draw.io/24.4.0 Chrome/120.0.6099.109 Electron/28.1.0 Safari/537.36" etag="y7yIe4ARNqNAwWODpJul" version="24.4.0" type="device">
  <diagram name="Страница — 1" id="1zZezkV841nnDk35EA2v">
    <mxGraphModel dx="2074" dy="1204" grid="1" gridSize="10" guides="1" tooltips="1" connect="1" arrows="1" fold="1" page="1" pageScale="1" pageWidth="827" pageHeight="1169" math="0" shadow="0">
      <root>
        <mxCell id="0" />
        <mxCell id="1" parent="0" />
        <mxCell id="sy93srcui-xe-WF3SS5Z-15" value="" style="rounded=0;whiteSpace=wrap;html=1;" vertex="1" parent="1">
          <mxGeometry x="60" y="520" width="760" height="210" as="geometry" />
        </mxCell>
        <mxCell id="sy93srcui-xe-WF3SS5Z-13" value="" style="rounded=0;whiteSpace=wrap;html=1;" vertex="1" parent="1">
          <mxGeometry x="40" y="280" width="780" height="210" as="geometry" />
        </mxCell>
        <mxCell id="sy93srcui-xe-WF3SS5Z-12" value="" style="rounded=0;whiteSpace=wrap;html=1;" vertex="1" parent="1">
          <mxGeometry x="20" y="50" width="800" height="210" as="geometry" />
        </mxCell>
        <mxCell id="sy93srcui-xe-WF3SS5Z-1" value="Dagger 2" style="text;strokeColor=none;fillColor=none;align=left;verticalAlign=middle;spacingLeft=4;spacingRight=4;overflow=hidden;points=[[0,0.5],[1,0.5]];portConstraint=eastwest;rotatable=0;whiteSpace=wrap;html=1;fontSize=16;fontStyle=1" vertex="1" parent="1">
          <mxGeometry x="20" y="10" width="80" height="30" as="geometry" />
        </mxCell>
        <mxCell id="sy93srcui-xe-WF3SS5Z-5" value="&lt;blockquote style=&quot;margin: 0 0 0 40px; border: none; padding: 0px;&quot;&gt;&lt;div style=&quot;&quot;&gt;&lt;font color=&quot;#ff8000&quot;&gt;class &lt;/font&gt;&lt;font color=&quot;#e6e6e6&quot;&gt;MainActivity: AppCompatActivity(){&lt;/font&gt;&lt;/div&gt;&lt;div style=&quot;&quot;&gt;&lt;font color=&quot;#e6e6e6&quot;&gt;&lt;br&gt;&lt;/font&gt;&lt;/div&gt;&lt;div style=&quot;&quot;&gt;&lt;span style=&quot;color: rgb(230, 230, 230); white-space: pre;&quot;&gt;&#x9;&lt;/span&gt;&lt;font color=&quot;#cccc00&quot;&gt;@Inject&lt;/font&gt;&lt;font color=&quot;#e6e6e6&quot;&gt; &lt;/font&gt;&lt;font color=&quot;#cc6600&quot;&gt;lateinit var&lt;/font&gt;&lt;font color=&quot;#e6e6e6&quot;&gt; &lt;/font&gt;&lt;font style=&quot;&quot; color=&quot;#9876aa&quot;&gt;&lt;u&gt;repository&lt;/u&gt;&lt;/font&gt;&lt;font color=&quot;#e6e6e6&quot;&gt;: Repository&lt;br&gt;&lt;/font&gt;&lt;/div&gt;&lt;div style=&quot;&quot;&gt;&lt;font color=&quot;#e6e6e6&quot;&gt;&lt;span style=&quot;white-space: pre;&quot;&gt;&#x9;&lt;/span&gt;&lt;br&gt;&lt;/font&gt;&lt;/div&gt;&lt;div style=&quot;&quot;&gt;&lt;span style=&quot;color: rgb(230, 230, 230); white-space: pre;&quot;&gt;&#x9;&lt;/span&gt;&lt;font color=&quot;#cc6600&quot;&gt;override fun&lt;/font&gt;&lt;font color=&quot;#e6e6e6&quot;&gt; &lt;/font&gt;&lt;font color=&quot;#ffff00&quot;&gt;onCreate&lt;/font&gt;&lt;font color=&quot;#e6e6e6&quot;&gt;(savedInstanceState: Bundle?) {&lt;/font&gt;&lt;/div&gt;&lt;div style=&quot;&quot;&gt;&lt;font color=&quot;#e6e6e6&quot;&gt;&lt;span style=&quot;white-space: pre;&quot;&gt;&#x9;&lt;/span&gt;&lt;span style=&quot;white-space: pre;&quot;&gt;&#x9;&lt;/span&gt;App.&lt;/font&gt;&lt;font style=&quot;&quot; color=&quot;#9876aa&quot;&gt;&lt;u style=&quot;&quot;&gt;appComponent&lt;/u&gt;&lt;/font&gt;&lt;font color=&quot;#e6e6e6&quot;&gt;.inject(&lt;/font&gt;&lt;font color=&quot;#007fff&quot;&gt;activity =&lt;/font&gt;&lt;font color=&quot;#e6e6e6&quot;&gt; &lt;/font&gt;&lt;font color=&quot;#cc6600&quot;&gt;this&lt;/font&gt;&lt;font color=&quot;#007fff&quot;&gt;@MainActivity&lt;/font&gt;&lt;font color=&quot;#e6e6e6&quot;&gt;)&lt;br&gt;&lt;/font&gt;&lt;/div&gt;&lt;div style=&quot;&quot;&gt;&lt;font color=&quot;#e6e6e6&quot;&gt;&lt;span style=&quot;white-space: pre;&quot;&gt;&#x9;&lt;/span&gt;}&lt;/font&gt;&lt;br&gt;&lt;/div&gt;&lt;div style=&quot;&quot;&gt;&lt;font color=&quot;#e6e6e6&quot;&gt;}&lt;/font&gt;&lt;/div&gt;&lt;/blockquote&gt;" style="rounded=1;whiteSpace=wrap;html=1;align=left;labelBackgroundColor=none;fillColor=#4F4F4F;strokeColor=#666666;gradientColor=none;" vertex="1" parent="1">
          <mxGeometry x="80" y="535" width="460" height="180" as="geometry" />
        </mxCell>
        <mxCell id="sy93srcui-xe-WF3SS5Z-2" value="&lt;blockquote style=&quot;margin: 0 0 0 40px; border: none; padding: 0px;&quot;&gt;&lt;font color=&quot;#cccc00&quot;&gt;@Component(modules = [AppModule::class, BModule::class, CModule:class, ...&lt;span style=&quot;&quot;&gt;])&lt;/span&gt;&lt;/font&gt;&lt;div style=&quot;&quot;&gt;&lt;span style=&quot;&quot;&gt;&lt;font color=&quot;#cccc00&quot;&gt;@Singleton&lt;/font&gt;&lt;/span&gt;&lt;/div&gt;&lt;div style=&quot;&quot;&gt;&lt;font color=&quot;#cc6600&quot;&gt;interface &lt;/font&gt;&lt;font color=&quot;#e6e6e6&quot;&gt;AppComponent {&lt;/font&gt;&lt;/div&gt;&lt;div style=&quot;&quot;&gt;&lt;span style=&quot;color: rgb(230, 230, 230); white-space: pre;&quot;&gt;&#x9;&lt;/span&gt;&lt;font color=&quot;#cc6600&quot;&gt;fun &lt;/font&gt;&lt;font color=&quot;#ffff00&quot;&gt;inject&lt;/font&gt;&lt;font color=&quot;#e6e6e6&quot;&gt;(activity: MainActivity)&lt;/font&gt;&lt;/div&gt;&lt;div style=&quot;&quot;&gt;&lt;span style=&quot;color: rgb(230, 230, 230); white-space: pre;&quot;&gt;&#x9;&lt;/span&gt;&lt;font color=&quot;#cc6600&quot;&gt;fun&lt;/font&gt;&lt;font color=&quot;#e6e6e6&quot;&gt; &lt;/font&gt;&lt;font color=&quot;#ffff00&quot;&gt;inject&lt;/font&gt;&lt;font color=&quot;#e6e6e6&quot;&gt;(fragment: SettingsFragment)&lt;/font&gt;&lt;/div&gt;&lt;div style=&quot;&quot;&gt;&lt;span style=&quot;color: rgb(230, 230, 230); white-space: pre;&quot;&gt;&#x9;&lt;/span&gt;&lt;font color=&quot;#cc6600&quot;&gt;fun &lt;/font&gt;&lt;font color=&quot;#ffff00&quot;&gt;inject&lt;/font&gt;&lt;font color=&quot;#e6e6e6&quot;&gt;(presenter: Presenter)&lt;/font&gt;&lt;/div&gt;&lt;div style=&quot;&quot;&gt;&lt;font color=&quot;#e6e6e6&quot;&gt;&lt;span style=&quot;white-space: pre;&quot;&gt;&#x9;&lt;/span&gt;...&lt;/font&gt;&lt;/div&gt;&lt;div style=&quot;&quot;&gt;&lt;span style=&quot;&quot;&gt;&lt;font color=&quot;#e6e6e6&quot;&gt;}&lt;/font&gt;&lt;/span&gt;&lt;/div&gt;&lt;/blockquote&gt;" style="rounded=1;whiteSpace=wrap;html=1;align=left;labelBackgroundColor=none;fillColor=#4F4F4F;strokeColor=#666666;gradientColor=none;" vertex="1" parent="1">
          <mxGeometry x="30" y="70" width="510" height="170" as="geometry" />
        </mxCell>
        <mxCell id="sy93srcui-xe-WF3SS5Z-9" style="edgeStyle=orthogonalEdgeStyle;rounded=0;orthogonalLoop=1;jettySize=auto;html=1;exitX=0.5;exitY=1;exitDx=0;exitDy=0;" edge="1" parent="1">
          <mxGeometry relative="1" as="geometry">
            <mxPoint x="350" y="300" as="sourcePoint" />
            <mxPoint x="350" y="300" as="targetPoint" />
          </mxGeometry>
        </mxCell>
        <mxCell id="sy93srcui-xe-WF3SS5Z-10" value="&lt;blockquote style=&quot;margin: 0 0 0 40px; border: none; padding: 0px;&quot;&gt;&lt;div style=&quot;&quot;&gt;&lt;span style=&quot;&quot;&gt;&lt;font color=&quot;#cccc00&quot;&gt;@Module&lt;/font&gt;&lt;/span&gt;&lt;/div&gt;&lt;div style=&quot;&quot;&gt;&lt;font color=&quot;#cc6600&quot;&gt;class &lt;/font&gt;&lt;font color=&quot;#e6e6e6&quot;&gt;RepositoryModule {&lt;/font&gt;&lt;/div&gt;&lt;div style=&quot;&quot;&gt;&lt;font color=&quot;#e6e6e6&quot;&gt;&lt;br&gt;&lt;/font&gt;&lt;/div&gt;&lt;div style=&quot;&quot;&gt;&lt;span style=&quot;color: rgb(204, 204, 0);&quot;&gt;&lt;span style=&quot;white-space: pre;&quot;&gt;&#x9;&lt;/span&gt;@Provides&lt;/span&gt;&lt;font color=&quot;#e6e6e6&quot;&gt;&lt;br&gt;&lt;/font&gt;&lt;/div&gt;&lt;div style=&quot;&quot;&gt;&lt;span style=&quot;color: rgb(230, 230, 230); white-space: pre;&quot;&gt;&#x9;&lt;/span&gt;&lt;font color=&quot;#cc6600&quot;&gt;fun &lt;/font&gt;&lt;font color=&quot;#ffff00&quot;&gt;provideRepository&lt;/font&gt;&lt;font color=&quot;#e6e6e6&quot;&gt;(context: Context): Repository {&lt;/font&gt;&lt;/div&gt;&lt;div style=&quot;&quot;&gt;&lt;span style=&quot;color: rgb(230, 230, 230); white-space: pre;&quot;&gt;&#x9;&lt;/span&gt;&lt;span style=&quot;color: rgb(230, 230, 230); white-space: pre;&quot;&gt;&#x9;&lt;/span&gt;&lt;font color=&quot;#cc6600&quot;&gt;return&lt;/font&gt;&lt;font color=&quot;#e6e6e6&quot;&gt; CustomRepositoryImpl(&lt;/font&gt;&lt;font color=&quot;#007fff&quot;&gt;context = &lt;/font&gt;&lt;font color=&quot;#e6e6e6&quot;&gt;context)&lt;br&gt;&lt;/font&gt;&lt;/div&gt;&lt;div style=&quot;&quot;&gt;&lt;font color=&quot;#e6e6e6&quot;&gt;&lt;span style=&quot;white-space: pre;&quot;&gt;&#x9;&lt;/span&gt;}&lt;/font&gt;&lt;/div&gt;&lt;div style=&quot;&quot;&gt;&lt;span style=&quot;color: rgb(230, 230, 230); background-color: initial; white-space: pre;&quot;&gt;&#x9;&lt;/span&gt;&lt;span style=&quot;color: rgb(230, 230, 230); background-color: initial;&quot;&gt;...&lt;/span&gt;&lt;br&gt;&lt;/div&gt;&lt;div style=&quot;&quot;&gt;&lt;span style=&quot;&quot;&gt;&lt;font color=&quot;#e6e6e6&quot;&gt;}&lt;/font&gt;&lt;/span&gt;&lt;/div&gt;&lt;/blockquote&gt;" style="rounded=1;whiteSpace=wrap;html=1;align=left;labelBackgroundColor=none;fillColor=#4F4F4F;strokeColor=#666666;gradientColor=none;" vertex="1" parent="1">
          <mxGeometry x="50" y="300" width="490" height="170" as="geometry" />
        </mxCell>
        <mxCell id="sy93srcui-xe-WF3SS5Z-11" value="&lt;b&gt;fun inject(whereTo: WhereToInject)&lt;br/&gt;&lt;/b&gt;&lt;br&gt;параметр указывает, куда  инжектить дерево зависимостей" style="text;whiteSpace=wrap;html=1;dashed=1;" vertex="1" parent="1">
          <mxGeometry x="550" y="70" width="270" height="50" as="geometry" />
        </mxCell>
        <mxCell id="sy93srcui-xe-WF3SS5Z-14" value="&lt;b&gt;Repository&lt;/b&gt; - интерфейс&lt;div&gt;&lt;b&gt;CustomRepositoryImpl&lt;/b&gt; - реализация интерфейса&lt;/div&gt;" style="text;whiteSpace=wrap;html=1;dashed=1;" vertex="1" parent="1">
          <mxGeometry x="550" y="300" width="260" height="50" as="geometry" />
        </mxCell>
        <mxCell id="sy93srcui-xe-WF3SS5Z-16" value="&lt;b&gt;...&lt;/b&gt;" style="text;whiteSpace=wrap;html=1;dashed=1;" vertex="1" parent="1">
          <mxGeometry x="555" y="540" width="260" height="50" as="geometry" />
        </mxCell>
      </root>
    </mxGraphModel>
  </diagram>
</mxfile>
